<?xml version="1.0" standalone="no"?>
<!DOCTYPE svg PUBLIC "-//W3C//DTD SVG 20010904//EN"
 "http://www.w3.org/TR/2001/REC-SVG-20010904/DTD/svg10.dtd">
<svg version="1.0" xmlns="http://www.w3.org/2000/svg"
 width="36" height="36" viewBox="0 0 258.000000 195.000000"
 preserveAspectRatio="xMidYMid meet">

<g transform="translate(0.000000,195.000000) scale(0.100000,-0.100000)"
fill="#46AAD6" stroke="none">
<path d="M890 1943 c-116 -20 -382 -103 -461 -144 -43 -22 -113 -127 -202
-305 -158 -315 -220 -593 -215 -964 l3 -204 85 -58 c108 -74 336 -188 464
-233 l99 -34 20 26 c26 33 117 184 117 194 0 4 -10 11 -22 15 -38 11 -188 87
-188 95 0 4 11 14 25 23 23 15 29 14 109 -18 198 -80 387 -111 626 -103 206 7
350 38 533 114 56 23 58 23 82 6 13 -10 25 -21 25 -24 0 -6 -153 -83 -188 -94
-16 -5 -22 -12 -17 -23 7 -21 90 -159 113 -189 l17 -23 100 35 c129 45 357
159 465 233 l85 58 3 194 c3 205 -6 323 -40 480 -45 214 -157 485 -282 688
-43 69 -67 97 -95 111 -82 42 -338 121 -468 145 -32 5 -33 4 -65 -64 l-32 -69
-61 7 c-78 9 -392 9 -471 0 l-60 -7 -34 69 c-19 39 -36 69 -39 69 -3 -1 -17
-4 -31 -6z m28 -815 c60 -15 142 -94 160 -154 27 -92 9 -199 -43 -269 -35 -44
-116 -85 -172 -85 -152 0 -263 163 -223 329 21 88 92 162 174 181 45 11 52 11
104 -2z m912 -26 c198 -120 133 -456 -93 -479 -133 -14 -248 100 -248 247 -1
89 18 138 76 196 79 79 172 92 265 36z" fill="#46AAD6"/>
</g>
</svg>
